# xmcd
# 
# Track frame offsets:
#     150
#     31350
#     62418
#     95701
#     134278
#     157825
#     193609
#     224915
#     249583
# 
# Disc length: 3568
# 
# Revision: 1
# Processed by: cddbd v1.5.2PL0 Copyright (c) Steve Scherf et al.
# Submitted via: BonkEnc v1.0.8
# 
DISCID=7f0dee09
DTITLE=Mike Melvoin, Briam Bromberg, John Guerin, Tom Scott - Oh Baby
DYEAR=2002
DGENRE=Contemporary Jazz
TTITLE0=There Is No Greater Love
TTITLE1=The Melody Is You
TTITLE2=You and the Night and the Music
TTITLE3=Sandy
TTITLE4=North Star
TTITLE5=I'll Never Smile Again
TTITLE6=Fifth Power
TTITLE7=So In Love
TTITLE8=Oh Baby
EXTD=YEAR: 0
EXTT0=
EXTT1=
EXTT2=
EXTT3=
EXTT4=
EXTT5=
EXTT6=
EXTT7=
EXTT8=
PLAYORDER=
